<svg width="519" height="600" viewBox="0 0 519 600" fill="none" xmlns="http://www.w3.org/2000/svg">
<path fill-rule="evenodd" clip-rule="evenodd" d="M331.639 406.19C306.571 423.78 338.465 454.268 326.008 478.656C332.546 492.077 377.727 494.431 372.677 493.951C335.224 487.689 285.834 487.657 263.72 524.143C244.509 514.21 296.22 496.354 293.668 489.346C267.402 475.891 274.902 438.653 261.701 421.756C238.295 418.313 227.982 457.11 212.423 473.239C193.886 503.352 172.356 531.429 155.584 562.561C142.216 588.852 121.072 562.245 101.498 575.579C83.5761 574.735 52.2128 604.855 55.1197 570.538C61.201 546.434 105.072 503.405 68.918 488.642C54.8092 495.361 18.7298 517.658 12 498.685C39.6974 485.929 76.9942 480.615 93.9133 449.306C122.183 414.803 138.877 372.523 166.799 337.8C203.613 269.427 240.887 195.366 310.26 154.18C325.858 133.43 365.372 113.267 346.733 82.6008C335.347 64.0636 291.836 71.9226 314.691 42.8526C334.461 22.5253 363.56 6.85862 392.736 13.5791C429.49 19.0563 460.489 47.0788 470.569 82.4666C486.947 119.87 468.039 166.783 496.011 200.277C514.895 216.216 505.013 243.309 498.865 263.38C491.122 278.279 480.898 312.486 469.372 312.096C449.035 310.456 451.946 359.849 421.829 357.136C385.055 347.109 391.423 394.086 379.406 413.92C364.954 424.93 344.471 415.242 331.639 406.19Z" fill="white" fill-opacity="0.6"/>
<path d="M305.841 34.589C326.909 12.8856 359.963 -6.06738 394.981 1.82589C436.101 8.20466 470.424 39.3302 481.922 78.7029C490.901 99.9038 490.21 123.742 490.961 142.701C491.759 162.863 494.003 179.07 504.781 192.339C517.349 203.674 519.814 218.54 518.793 231.661C517.784 244.629 513.211 258.039 510.345 267.417C510.128 268.124 509.84 268.814 509.5 269.471C507.841 272.669 505.943 277.099 503.665 282.525C501.476 287.74 498.998 293.715 496.365 299.225C493.784 304.624 490.703 310.356 487.119 314.858C484.029 318.738 477.884 325.131 468.755 324.824C468.73 324.823 468.7 324.809 468.675 324.808C468.641 324.842 468.605 324.894 468.564 324.936C468.28 325.227 467.898 325.671 467.432 326.337C465.166 329.573 463.368 333.965 460.163 340.76C457.374 346.674 453.504 354.347 447.538 360.246C440.978 366.731 432.058 370.898 420.566 369.861C419.85 369.797 419.14 369.669 418.446 369.479C411.601 367.609 409.143 368.939 408.228 369.575C406.693 370.643 404.758 373.189 402.776 378.904C400.796 384.615 399.539 390.981 397.723 398.66C396.083 405.595 393.884 414.029 389.769 420.837C388.975 422.148 387.943 423.313 386.724 424.244C375.456 432.844 362.394 432.736 351.782 430.023C345.49 428.413 339.499 425.758 334.183 422.827C334.127 423.103 334.06 423.375 334.024 423.655C333.616 426.85 334.255 431.071 335.889 437.489C337.326 443.133 339.715 451.056 340.687 458.599C341.362 463.837 341.46 469.629 340.145 475.569C340.523 475.745 340.927 475.967 341.388 476.158C345.318 477.787 350.43 479.109 355.735 480.138C362.178 480.722 368.414 481.549 374.29 482.526C374.414 482.541 374.553 482.554 374.689 482.574C374.803 482.591 375.017 482.619 375.279 482.67C375.349 482.683 376.189 482.834 377.176 483.195C377.303 483.238 379.475 483.967 381.464 485.885C382.731 487.316 384.838 491.757 385.194 494.769C384.745 497.955 382.227 502.66 380.682 504.161C379.677 504.896 377.919 505.852 377.223 506.136C376.763 506.296 375.98 506.533 375.645 506.613C374.988 506.761 374.447 506.813 374.226 506.836C373.456 506.917 372.804 506.916 372.792 506.916C372.6 506.914 372.43 506.904 372.314 506.9C372.069 506.891 371.807 506.882 371.564 506.868C370.591 506.811 369.036 506.696 367.101 506.502C363.526 506.143 358.37 505.462 352.738 504.432C339.892 503.319 326.753 503.403 314.688 505.706C297.14 509.055 282.906 516.783 274.198 531.177C270.861 536.692 263.809 538.665 258.082 535.699C254.359 533.77 249.637 530.297 247.848 524.236C245.991 517.933 248.367 512.584 250.43 509.463C252.496 506.339 255.295 503.781 257.715 501.821C260.25 499.769 263.076 497.822 265.781 496.074C268.494 494.322 271.338 492.606 273.847 491.075C274.143 490.895 274.422 490.693 274.708 490.518C266.554 481.254 263.058 469.777 260.84 460.254C260.03 456.779 259.336 453.271 258.688 450.114C258.022 446.867 257.394 443.936 256.695 441.214C256.138 439.044 255.542 437.199 254.958 435.611C254.568 435.849 254.155 436.116 253.73 436.438C250.916 438.572 247.865 442.203 244.373 447.503C240.828 452.883 237.757 458.47 233.932 464.839C230.625 470.347 226.751 476.358 222.247 481.301C213.008 496.264 203.042 510.816 193.602 524.985C183.856 539.612 174.561 554.037 166.47 569.083L166.454 569.067C162.109 577.521 156.207 583.466 148.298 586.149C140.959 588.638 133.756 587.615 128.818 586.722C116.915 584.567 113.164 583.291 108.558 586.435C106.362 587.932 103.737 588.677 101.081 588.553C99.5601 588.481 96.4965 589.174 91.0228 591.37C86.7356 593.091 79.781 596.289 74.4603 598.009C71.569 598.944 68.0672 599.848 64.4336 599.983C60.7199 600.12 55.9781 599.467 51.665 596.369C42.9952 590.137 42.3764 579.065 43.1208 570.261C43.1765 569.602 43.2941 568.944 43.4555 568.303C45.4556 560.366 50.2481 551.705 54.5025 544.295C59.1315 536.233 63.6199 528.853 66.9203 521.689C70.3294 514.29 71.2921 509.464 70.9055 506.597C70.7912 505.75 70.567 504.526 68.897 503.127C61.8927 506.76 51.339 512.254 41.9411 515.528C35.6655 517.715 27.9992 519.678 20.708 518.919C16.8676 518.519 12.6741 517.308 8.87999 514.573C4.98855 511.768 2.28001 507.901 0.702377 503.445C-1.40464 497.493 1.37243 490.921 7.11057 488.273C14.5767 484.828 22.5954 481.925 30.129 479.183C37.8455 476.375 45.1642 473.686 52.0795 470.507C65.8073 464.196 76.628 456.497 83.2915 444.144C83.6609 443.459 84.1059 442.804 84.5986 442.201C98.0042 425.807 108.766 407.43 120.019 388.074C130.921 369.322 142.321 349.604 156.587 331.638C192.394 264.959 230.769 188.553 302.015 145.216C306.419 139.781 311.829 134.597 316.68 130.013C322.45 124.561 327.644 119.687 331.808 114.65C335.96 109.627 338.24 105.414 338.997 101.691C339.657 98.4392 339.386 94.5338 336.208 89.2737L335.331 88.1753C334.192 87.0083 332.191 85.652 328.716 84.1316C326.514 83.169 324.127 82.3061 321.415 81.3456C318.858 80.4404 315.82 79.3823 313.046 78.2094C308.433 76.2588 299.403 72.0452 296.627 62.3373C293.824 52.5205 299.015 43.1817 304.996 35.5601C305.26 35.2227 305.542 34.8968 305.841 34.589ZM389.848 25.7216C366.916 20.4291 342.228 32.4858 323.917 51.1138C322.607 52.8198 321.78 54.1127 321.255 55.046C321.635 55.2284 322.07 55.477 322.594 55.6987C324.534 56.5186 326.752 57.2879 329.592 58.2937C332.276 59.244 335.439 60.3709 338.551 61.7324C343.809 64.0327 350.351 67.5853 355.145 73.72L357.09 76.506L357.122 76.5538C363.225 86.6154 364.993 96.7435 363.004 106.547C361.108 115.887 356.031 123.768 350.698 130.22C345.374 136.66 338.945 142.647 333.514 147.779C331.997 149.212 330.591 150.61 329.242 151.918C342.41 153.594 354.71 159.351 362.909 170.019C372.56 182.579 374.699 199.543 369.189 218.511C363.736 237.279 350.665 258.831 328.524 282.828L327.727 283.703L326.771 284.404C241.175 347.309 214.012 392.835 166.168 468.899C162.572 474.615 155.011 476.339 149.286 472.752C143.561 469.16 141.832 461.61 145.429 455.892C193.385 379.651 222.515 330.863 311.197 265.475C331.43 243.389 341.706 225.362 345.677 211.698C349.632 198.081 347.197 189.727 343.493 184.904C339.614 179.857 332.437 176.183 322.244 175.862C312.118 175.544 299.912 178.659 288.051 186.082C287.342 186.525 286.604 186.882 285.851 187.165C238.699 227.748 208.727 286.339 177.677 344.119C177.324 344.775 176.916 345.401 176.449 345.982C163.177 362.518 152.483 380.964 141.204 400.364C130.267 419.176 118.745 438.864 104.254 456.768C98.1787 467.616 90.1196 475.664 81.283 481.937C89.1 487.067 93.9649 494.297 95.1833 503.334C96.5474 513.452 92.9501 523.679 89.1577 531.91C85.2579 540.374 79.9025 549.201 75.7356 556.458C71.4933 563.847 68.6682 569.387 67.4623 573.445C67.4377 573.851 67.4093 574.226 67.3985 574.575C71.6023 573.166 75.6004 571.192 81.8887 568.669C86.2334 566.925 92.0529 564.797 98.0686 564.243C112.08 556.816 126.787 561.494 133.17 562.651C137.626 563.458 139.438 563.319 140.423 562.985C140.772 562.867 142.446 562.335 144.759 557.78L144.903 557.525C153.566 541.412 163.403 526.201 173.229 511.453C183.147 496.568 192.931 482.315 202.034 467.498L202.783 466.415C203.051 466.07 203.341 465.743 203.644 465.428C206.486 462.477 209.448 458.074 212.938 452.263C216.146 446.919 220.025 439.98 223.921 434.066C227.869 428.074 232.744 421.635 238.921 416.952C244.634 412.622 251.682 409.657 259.899 409.948L263.486 410.266L265.765 410.839C267.96 411.612 269.911 412.992 271.361 414.851C276.234 421.102 278.733 428.598 280.415 435.149C281.277 438.507 282.013 441.951 282.679 445.194C283.363 448.528 283.986 451.635 284.703 454.714C287.46 466.549 290.842 474.089 297.79 478.339L299.225 479.151L301.17 480.377C302.151 481.141 302.968 482.08 303.673 483.099C305.804 482.564 307.948 482.093 310.097 481.683C311.336 481.446 312.579 481.229 313.827 481.03C313.479 478.573 313.884 476.035 315.038 473.77C316.629 470.648 317.077 466.902 316.409 461.719C315.689 456.131 314.01 450.752 312.169 443.523C310.524 437.06 308.679 428.808 309.73 420.566C310.896 411.432 315.459 403.155 324.523 396.782L326.165 395.811C330.144 393.856 334.945 394.198 338.647 396.814C344.41 400.886 351.339 404.667 357.855 406.334C363.092 407.673 366.965 407.397 369.938 405.952C371.316 402.887 372.561 398.668 373.892 393.041C375.406 386.64 377.11 378.163 379.63 370.896C382.151 363.63 386.269 355.047 394.248 349.5C402.436 343.812 412.367 342.868 423.244 345.504C426.504 345.697 428.404 344.741 430.306 342.861C432.892 340.305 435.222 336.234 438.005 330.332C440.373 325.313 443.537 317.813 447.379 312.327C451.206 306.863 457.577 300.69 467.289 300.355C467.468 300.156 467.716 299.943 467.958 299.639C469.769 297.365 471.892 293.662 474.271 288.686C476.594 283.825 478.834 278.466 481.093 273.085C483.055 268.412 485.127 263.528 487.135 259.489C490.335 249.063 493.642 239.134 494.372 229.767C495.077 220.697 493.196 214.517 487.868 210.01C487.326 209.552 486.824 209.043 486.37 208.498C469.565 188.336 467.315 164.471 466.492 143.672C465.62 121.661 466.147 103.681 459.143 87.6499C458.923 87.1459 458.735 86.6188 458.585 86.0898C449.785 55.1419 422.6 30.6466 390.789 25.8967C390.474 25.8495 390.159 25.7933 389.848 25.7216Z" fill="white"/>
</svg>
